# xmcd
# 
# Track frame offsets:
#     150
#     22137
#     38195
#     55010
#     72422
#     89562
#     110527
#     133785
#     152135
#     173810
#     188207
# 
# Disc length: 2739
# 
# Revision: 8
# Processed by: cddbd v1.5.2PL0 Copyright (c) Steve Scherf et al.
# Submitted via: fre:ac v1.0.17
# 
DISCID=9b0ab10b
DTITLE=Carolyn Dawn Johnson - Room With A View
DYEAR=2001
DGENRE=Country
TTITLE0=Georgia
TTITLE1=Just Another girl
TTITLE2=I'll Think Of You That Way
TTITLE3=Love Is Always Worth the Ache
TTITLE4=Complicated
TTITLE5=I Don't Want You To Go
TTITLE6=You Are
TTITLE7=Masterpiece
TTITLE8=Little Bit Of This, Little Bit Of That
TTITLE9=One Day Closer To You
TTITLE10=Room With A View
EXTD=
EXTT0=
EXTT1=
EXTT2=
EXTT3=
EXTT4=
EXTT5=
EXTT6=
EXTT7=
EXTT8=
EXTT9=
EXTT10=
PLAYORDER=
